<?xml version="1.0" encoding="UTF-8" standalone="no"?>
<svg
   viewBox="0 0 24 24"
   version="1.1"
   id="svg32"
   sodipodi:docname="analytics.svg"
   width="24"
   height="24"
   inkscape:export-filename="analytics.png"
   inkscape:export-xdpi="96"
   inkscape:export-ydpi="96"
   inkscape:version="1.2.2 (732a01da63, 2022-12-09)"
   xmlns:inkscape="http://www.inkscape.org/namespaces/inkscape"
   xmlns:sodipodi="http://sodipodi.sourceforge.net/DTD/sodipodi-0.dtd"
   xmlns="http://www.w3.org/2000/svg"
   xmlns:svg="http://www.w3.org/2000/svg">
  <sodipodi:namedview
     id="namedview34"
     pagecolor="#ffffff"
     bordercolor="#000000"
     borderopacity="0.25"
     inkscape:showpageshadow="2"
     inkscape:pageopacity="0.0"
     inkscape:pagecheckerboard="0"
     inkscape:deskcolor="#d1d1d1"
     showgrid="false"
     inkscape:zoom="9.8333333"
     inkscape:cx="-12.152542"
     inkscape:cy="12.050847"
     inkscape:window-width="1920"
     inkscape:window-height="1121"
     inkscape:window-x="-9"
     inkscape:window-y="-9"
     inkscape:window-maximized="1"
     inkscape:current-layer="svg32" />
  <defs
     id="defs4">
    <style
       id="style2">.a{fill:none;stroke:#000;stroke-linecap:round;stroke-miterlimit:10;}</style>
  </defs>
  <title
     id="title6" />
  <line
     class="a"
     x1="0.5"
     x2="23.5"
     y1="23.5"
     y2="23.5"
     id="line8" />
  <path
     class="a"
     d="M 4.5,19 A 0.5,0.5 0 0 0 4,18.5 H 2 A 0.5,0.5 0 0 0 1.5,19 v 4.5 h 3 z"
     id="path10" />
  <path
     class="a"
     d="M 10.5,14 A 0.5,0.5 0 0 0 10,13.5 H 8 A 0.5,0.5 0 0 0 7.5,14 v 9.5 h 3 z"
     id="path12" />
  <path
     class="a"
     d="M 16.5,16 A 0.5,0.5 0 0 0 16,15.5 H 14 A 0.5,0.5 0 0 0 13.5,16 v 7.5 h 3 z"
     id="path14" />
  <path
     class="a"
     d="M 22.5,9 A 0.5,0.5 0 0 0 22,8.5 H 20 A 0.5,0.5 0 0 0 19.5,9 v 14.5 h 3 z"
     id="path16" />
  <circle
     class="a"
     cx="3"
     cy="11.5"
     r="1.5"
     id="circle18" />
  <circle
     class="a"
     cx="9"
     cy="6.5"
     r="1.5"
     id="circle20" />
  <circle
     class="a"
     cx="15"
     cy="8.5"
     r="1.5"
     id="circle22" />
  <circle
     class="a"
     cx="21"
     cy="2"
     r="1.5"
     id="circle24" />
  <line
     class="a"
     x1="4.2610002"
     x2="7.848"
     y1="10.45"
     y2="7.46"
     id="line26" />
  <line
     class="a"
     x1="10.424"
     x2="13.577"
     y1="6.974"
     y2="8.0249996"
     id="line28" />
  <line
     class="a"
     x1="19.799999"
     x2="16.041"
     y1="2.9000001"
     y2="7.2849998"
     id="line30" />
</svg>
